<?xml version="1.0" encoding="utf-8"?>
<!-- Generator: Adobe Illustrator 25.3.1, SVG Export Plug-In . SVG Version: 6.00 Build 0)  -->
<svg version="1.1" id="图层_1" xmlns="http://www.w3.org/2000/svg" xmlns:xlink="http://www.w3.org/1999/xlink" x="0px" y="0px"
	 width="89.2px" height="89.2px" viewBox="0 0 89.2 89.2" style="enable-background:new 0 0 89.2 89.2;" xml:space="preserve">
<style type="text/css">
	.st0{fill-rule:evenodd;clip-rule:evenodd;fill:#FFFFFF;}
	.st1{fill-rule:evenodd;clip-rule:evenodd;}
</style>
<g id="页面-1">
	<g id="OpenClaw-Asia备份" transform="translate(-297.000000, -135.000000)">
		<g id="编组-6" transform="translate(297.000000, 110.000000)">
			<g id="编组-4" transform="translate(0.000000, 25.000000)">
				<path class="st0" d="M60.1,89.2H29.1C13,89.2,0,76.2,0,60.1V29.1C0,13,13,0,29.1,0h30.9c16.1,0,29.1,13,29.1,29.1v30.9
					C89.2,76.2,76.2,89.2,60.1,89.2z"/>
				<g id="编组">
					<path id="Fill-1" class="st1" d="M72.5,74.8c-6.3,5.8-13.4,8.3-15.5,5.8c-1.3-1.6-0.6-4.5,1.4-7.8c0.3-0.4,0.6-0.9,0.9-1.4l0,0
						c0.4-0.7,1-1.4,1.7-2.2l0,0l1,1.2l1,1.3c0.7,0.9,2.2,2.6,6.2-1c4-3.7,2.6-5.5,1.9-6.3l-1.9-2.4c1.3-0.9,2.6-1.6,3.7-2.2
						c3.3-1.4,5.9-1.6,7.2-0.1C82.4,62.3,79,69.1,72.5,74.8"/>
					<path id="Fill-3" class="st1" d="M74.8,68.4c-0.6,1.9-2,3.7-4.2,5.5c-2.2,1.9-4.2,2.9-6.2,3.3c-1.2,0.1-2.9,0.1-4.5-0.7
						c-0.7-0.4-1.6-1-2.2-1.9L56.4,73l-0.9-1l-2-2.2c1.9-0.1,3.5-0.6,4.9-1.2l0.6,0.6l1,1.2l1.2,1.3c0.7,0.9,2.3,2.6,6.6-1
						c4.3-3.7,2.7-5.5,2-6.3l-2.2-2.4L65.9,60c0.3-0.9,0.6-1.6,0.6-2.3c0.1-1.2,0.3-2.4,0.3-3.6l2.2,2.4l2.7,3.2l1.4,1.6
						C75.4,64,75.4,66.8,74.8,68.4"/>
					<path id="Fill-5" class="st1" d="M47.7,46.5l-3.3,2.9l-0.1,0.1l0.1-0.6l-2.3-0.7l-19.4-5.9c1.7,4.7,5.9,9.6,11.1,13.1
						c0.6,0.4,1.3,0.9,2,1.3L32.4,60c-0.7-0.4-1.3-0.9-1.9-1.3c-7-5.2-12.2-12.5-12.9-19.1c0-0.7,0.3-1.4,0.9-2
						c0.6-0.6,1.3-0.7,2-0.4l22,6.6l4,1.2L47.7,46.5z"/>
					<path id="Fill-7" class="st1" d="M64.6,57.6c0,0-1.6,11.1-12.5,10.6c-4.6-0.1-11.4-2.3-16.5-7.5l14.4-12.9c1-0.9,1-2.3,0.3-3.3
						L32.5,23.2c8.3-1.4,18,2.6,24.7,10.8C63,40.9,65.7,49.7,64.6,57.6 M60.5,31c-8.9-10.8-22-15.2-32.9-11.2
						c-0.7,0.3-1.2,0.9-1.4,1.6c-0.1,0.7,0,1.4,0.4,2.2L43,43.2l2.3,2.7l-2.4,2.2l-8.3,7.5l-3.3,3l-0.3,0.3c-1,0.9-1,2.3-0.3,3.3
						c2.3,2.9,5.2,5,7.9,6.8c4.7,2.7,9.8,3.9,13.4,4.2c1.3,0,2.6,0,3.7-0.3c0.6-0.1,1.3-0.3,1.9-0.4l0,0c1-0.3,1.9-0.7,2.7-1.2l0,0
						c4-2.2,6.3-5.8,7.6-8.9c0.6-1.6,1-3,1.2-4c0-0.4,0.1-1,0.1-1.4c0.1-0.9,0.1-1.7,0.1-2.6C69.3,46.1,66.2,37.7,60.5,31"/>
					<path id="Fill-9" class="st1" d="M17.3,25.6c0.6-1.2,0-2.4-1-2.9L10.6,20c-1.2-0.6-2.4,0-2.9,1c-0.4,1-0.1,2.3,0.9,2.9
						c0,0,0,0,0.1,0l5.6,2.7C15.4,27.2,16.7,26.8,17.3,25.6"/>
					<path id="Fill-11" class="st1" d="M16.5,13.1l2.9,4.2c0.1,0.3,0.4,0.4,0.7,0.7c0.7,0.4,1.6,0.4,2.3-0.1c1-0.7,1.2-2,0.6-3
						l-2.9-4.2c-0.7-1-2-1.3-3-0.6C16.1,10.7,15.8,12.1,16.5,13.1"/>
					<path id="Fill-13" class="st1" d="M14.5,36.7c0.3-1.4-0.3-2.9-1.2-3.3l-4.7-2c-1-0.4-2.2,0.3-2.4,1.6c-0.3,1.2,0.1,2.4,0.9,3
						c0.1,0.1,0.3,0.1,0.3,0.3l4.7,2C13.1,38.7,14.2,38,14.5,36.7"/>
				</g>
			</g>
		</g>
	</g>
</g>
</svg>
