<?xml version="1.0" encoding="UTF-8"?>
<svg width="231px" height="50px" viewBox="0 0 231 50" version="1.1" xmlns="http://www.w3.org/2000/svg" xmlns:xlink="http://www.w3.org/1999/xlink">
    <title>编组 3备份</title>
    <g id="页面-1" stroke="none" stroke-width="1" fill="none" fill-rule="evenodd">
        <g id="OpenClaw-Asia备份" transform="translate(-297.000000, -135.000000)" fill="#FFFFFF">
            <g id="编组-6" transform="translate(297.000000, 110.000000)">
                <g id="编组-4" transform="translate(0.000000, 25.000000)">
                    <g id="编组">
                        <path d="M46.2368074,45.31393 C41.8034149,49.3404356 36.9517778,51.0910902 35.4460974,49.2966692 C34.5803311,48.2287699 35.0153054,46.2067638 36.399695,43.9002764 C36.5920875,43.5807819 36.8012098,43.2569108 37.0270619,42.9286631 L37.0312443,42.9286631 C37.3783873,42.4209732 37.7715372,41.9001535 38.2023291,41.3793337 L38.2065116,41.3749571 L38.8589731,42.1627517 L39.5867187,43.038079 C40.0886122,43.6070417 41.0923991,44.8762663 43.9364623,42.2940508 C46.7805254,39.7118352 45.7767384,38.486377 45.2748449,37.9174142 L43.9364623,36.2542923 C44.8482354,35.6503165 45.7432788,35.1601332 46.579768,34.7968724 C48.850836,33.7989992 50.7245717,33.6983366 51.5485136,34.7224696 C53.054194,36.5606569 50.6701999,41.2874244 46.2368074,45.31393" id="Fill-1"></path>
                        <path d="M47.7566987,40.8426169 C47.3148813,42.149159 46.3870649,43.4121496 44.884886,44.6751403 C43.3827071,45.9816823 41.9688917,46.6785048 40.599258,46.9398132 C39.7598051,47.0704674 38.61108,47.026916 37.462355,46.4171964 C36.9321742,46.1123366 36.4019934,45.7203739 35.9159943,45.1106543 L34.8909782,43.9652524 L34.2856884,43.2858506 L33,41.8442991 C34.2812702,41.7571963 35.4299953,41.4523365 36.4019934,41.0168225 L36.7952108,41.4566917 L37.4844458,42.2362618 L38.2576262,43.1072898 C38.787807,43.673458 39.8481685,44.9364487 42.8525263,42.366916 C45.8568842,39.7973832 44.7965226,38.577944 44.2663418,38.0117757 L42.8127628,36.3611776 L41.6596196,35.0502804 C41.8805282,34.4405608 42.0130734,33.9179439 42.0572552,33.4824299 C42.1898004,32.6985047 42.2339821,31.8274766 42.2339821,31 L43.7184883,32.6985047 L45.6448118,34.9065608 L46.6079736,36.0084112 C48.2426977,37.8375701 48.1543342,39.666729 47.7566987,40.8426169" id="Fill-3"></path>
                        <path d="M29,25.6382171 L26.7208509,27.625388 L26.6331913,27.7578661 L26.7208509,27.4045912 L25.1648934,26.9320862 L11.6872329,22.8561778 C12.8969351,26.1548815 15.8028502,29.5198243 19.3574462,31.992748 C19.8001271,32.3062795 20.2559569,32.6021471 20.7161697,32.880351 L18.3055312,35 C17.8540844,34.7041323 17.4114035,34.3950169 16.9774886,34.0682376 C12.1123819,30.4692504 8.48765823,25.3997566 8.00553054,20.7365289 C7.96170075,20.2066167 8.1808497,19.7208638 8.57531781,19.3675889 C8.96978592,19.0143141 9.4957434,18.9259954 10.0217009,19.0584735 L25.2919998,23.6510462 L28.0795744,24.4900739 L29,25.6382171 Z" id="Fill-5"></path>
                        <path d="M40.7394364,33.3138584 C40.7394364,33.3594926 39.5984586,40.9804053 32.0504514,40.7522343 C28.8908204,40.6609659 24.151374,39.2006712 20.5090217,35.5499346 L30.5145196,26.5143615 C31.1727761,25.9211168 31.2605436,24.9171642 30.6900547,24.2326511 L18.3587173,9.40153361 C24.1952578,8.39758104 30.8655898,11.2269019 35.6050361,16.8855437 C39.5545748,21.7227697 41.4854604,27.8377535 40.7394364,33.3138584 M37.9308756,14.7863701 C31.743265,7.34799427 22.5715586,4.24486814 15.0235513,6.9829206 C14.5408299,7.16545743 14.1897598,7.5761653 14.0581085,8.07814159 C13.9264573,8.58011787 14.0142248,9.12772836 14.3652949,9.53843623 L25.7926268,23.2286985 L27.3548887,25.099701 L25.6653638,26.6193202 L19.8507653,31.8490004 L17.4678769,33.9938081 L17.2616232,34.1809084 C16.6033668,34.7741531 16.5155993,35.7781056 17.0860882,36.4626187 C18.7097874,38.4248897 20.640673,39.9764527 22.6154423,41.1173079 C25.9506083,43.0339447 29.3735418,43.8553604 31.9188001,43.992263 C32.8666893,44.024207 33.7443646,43.9557556 34.5562142,43.8142896 C34.9950518,43.7367114 35.4119476,43.6317528 35.8156782,43.5131038 L35.8200666,43.5131038 C36.51343,43.3031865 37.1497446,43.0339447 37.7333987,42.7145052 L37.737787,42.7145052 C40.4980757,41.22683 42.1481052,38.7032583 43.0257805,36.5584506 C43.4690065,35.4723564 43.7147555,34.4820941 43.8112998,33.7702005 C43.859572,33.4233805 43.8990673,33.0719971 43.9253976,32.7206137 C43.9780581,32.1319324 44,31.5432512 44,30.945443 C44,25.3461258 41.8321421,19.4684398 37.9308756,14.7863701" id="Fill-7"></path>
                        <path d="M7.83775489,11.1453692 C8.22841406,10.3659838 7.88116147,9.45670081 7.14324971,9.11030729 L3.19325145,7.16184373 C2.41193312,6.77215101 1.50039506,7.11854454 1.15314246,7.85463077 C0.805889869,8.590717 1.06632931,9.45670081 1.7608345,9.84639352 C1.80424108,9.84639352 1.80424108,9.88969271 1.84764765,9.88969271 L5.7976459,11.8381563 C6.53555767,12.227849 7.44709573,11.8814555 7.83775489,11.1453692" id="Fill-9"></path>
                        <path d="M7.2856495,2.39190898 L9.2845495,5.33810721 C9.40948075,5.51141299 9.57605575,5.68471877 9.7842745,5.8146981 C10.2423557,6.07465677 10.867012,6.07465677 11.366737,5.72804521 C12.033037,5.25145432 12.199612,4.29827254 11.7415308,3.60504943 L9.74263075,0.658851191 C9.2845495,-0.0343719235 8.368387,-0.207677702 7.702087,0.268913189 C6.9524995,0.74550408 6.7859245,1.69868586 7.2856495,2.39190898" id="Fill-11"></path>
                        <path d="M5.93263184,18.779736 C6.16435877,17.8189276 5.77814722,16.8075503 5.08296644,16.5041371 L1.80016829,15.0882089 C1.06636636,14.7847958 0.293943265,15.2904844 0.062216337,16.2007239 C-0.130889436,17.0098257 0.139458646,17.9200653 0.680154811,18.3246162 C0.75739712,18.3751851 0.834639429,18.4257539 0.911881739,18.4763228 L4.19467988,19.892251 C4.92848182,20.246233 5.70090491,19.6899755 5.93263184,18.779736" id="Fill-13"></path>
                    </g>
                    <g id="编组" transform="translate(68.566265, 9.888889)">
                        <polygon id="Fill-1" points="15.988815 2.26666667 15.988815 11.3491565 6.77941727 11.3491565 6.77941727 2.26666667 0 2.26666667 0 26.4444444 6.77941727 26.4444444 6.77941727 17.0138453 15.988815 17.0138453 15.988815 26.4444444 22.7710843 26.4444444 22.7710843 2.26666667"></polygon>
                        <g transform="translate(25.807229, 0.000000)">
                            <path d="M13.7741829,18.151074 C13.4196168,18.8111537 12.9572627,19.3090105 12.3786108,19.6446442 C11.799959,19.980278 11.1447209,20.1480949 10.4185696,20.1480949 C9.69241824,20.1480949 9.04001666,19.980278 8.46136483,19.6446442 C7.88271299,19.3090105 7.4175223,18.8111537 7.06579276,18.151074 C6.71406321,17.4909942 6.53819844,16.6994579 6.53819844,15.782059 C6.53819844,14.8422844 6.71406321,14.059139 7.06579276,13.4326226 C7.4175223,12.8061063 7.88271299,12.3250312 8.46136483,11.9893975 C9.04001666,11.6537637 9.69241824,11.4831499 10.4185696,11.4831499 C11.1447209,11.4831499 11.799959,11.6537637 12.3786108,11.9893975 C12.9572627,12.3250312 13.4196168,12.8061063 13.7741829,13.4326226 C14.1259125,14.059139 14.3017772,14.8422844 14.3017772,15.782059 C14.3017772,16.6994579 14.1259125,17.4909942 13.7741829,18.151074 M15.8164835,7.58979819 C14.2393736,6.78427716 12.4410145,6.38151664 10.4185696,6.38151664 C8.3989612,6.38151664 6.60627512,6.78427716 5.0376748,7.58979819 C3.47191101,8.39531923 2.2408576,9.50850454 1.34451456,10.9293541 C0.445334991,12.3530007 0,13.9808245 0,15.8156224 C0,17.6280447 0.445334991,19.2474776 1.34451456,20.6683272 C2.2408576,22.0891768 3.47191101,23.2051591 5.0376748,24.0106801 C6.60627512,24.8162011 8.3989612,25.2189617 10.4185696,25.2189617 C12.4410145,25.2189617 14.2393736,24.8162011 15.8164835,24.0106801 C17.3935934,23.2051591 18.6303199,22.0891768 19.5294994,20.6683272 C20.4258425,19.2474776 20.874014,17.6280447 20.874014,15.8156224 C20.874014,13.9808245 20.4258425,12.3530007 19.5294994,10.9293541 C18.6303199,9.50850454 17.3935934,8.39531923 15.8164835,7.58979819" id="Fill-2"></path>
                            <polygon id="Fill-4" points="23.8356335 24.9152131 30.3057553 24.9152131 30.3057553 0 23.8356335 0"></polygon>
                            <path d="M43.2159316,17.8269077 L38.6831589,6.68106977 L32.0428454,6.68106977 L39.9369045,25.1129573 C39.68729,25.5884385 39.4178198,25.9828082 39.1114747,26.2261427 C38.7115241,26.5394008 38.1498915,26.6988269 37.4237402,26.6988269 C36.9245111,26.6988269 36.419609,26.6009337 35.9090339,26.4107412 C35.3984587,26.2205488 34.9502872,25.9688234 34.5645193,25.6527683 L32.2811138,30.0859309 C32.9164962,30.5781938 33.7334164,30.9781574 34.734711,31.2802278 C35.7331691,31.5822981 36.7089349,31.7333333 37.6620086,31.7333333 C38.8873889,31.7333333 40.0078177,31.5543287 41.0176219,31.1963193 C42.0274261,30.83831 42.9407883,30.2145905 43.7577085,29.3335519 C44.5746288,28.4469194 45.3121262,27.2218562 45.9730374,25.6527683 L53.9068079,6.68106977 L47.7770696,6.68106977 L43.2159316,17.8269077 Z" id="Fill-6"></path>
                            <path d="M63.2900445,8.27700832 C63.8686963,7.68405534 64.5664824,7.23094976 65.3834026,6.91769158 C66.2003229,6.6044334 67.0966659,6.44780431 68.0752683,6.44780431 C69.1871875,6.44780431 70.2083378,6.68274794 71.1387192,7.15263521 C72.0691005,7.62531943 72.9228956,8.30777475 73.6915949,9.20000118 L77.9860992,5.37377626 C76.825959,3.91656633 75.3793294,2.81736576 73.6433739,2.06498674 C71.9074184,1.31540466 69.936031,0.940613625 67.7320483,0.940613625 C65.8485933,0.940613625 64.1126378,1.23709012 62.5213453,1.8300431 C60.9328892,2.42299608 59.5486633,3.26208049 58.3686674,4.35009328 C57.1886715,5.43251217 56.2667997,6.72749911 55.608725,8.22666326 C54.9506504,9.72862435 54.6216131,11.3704329 54.6216131,13.1632765 C54.6216131,14.9561202 54.9506504,16.6007257 55.608725,18.0998898 C56.2667997,19.599054 57.1886715,20.8940409 58.3686674,21.9764598 C59.5486633,23.0644726 60.9328892,23.903557 62.5213453,24.49651 C64.1126378,25.089463 65.8485933,25.3859395 67.7320483,25.3859395 C69.936031,25.3859395 71.9074184,25.0055545 73.6433739,24.2447847 C75.3793294,23.4840148 76.825959,22.3764234 77.9860992,20.9220104 L73.6915949,17.0901916 C72.9228956,18.0103875 72.0691005,18.7068275 71.1387192,19.1739179 C70.2083378,19.6438051 69.1871875,19.8787488 68.0752683,19.8787488 C67.0966659,19.8787488 66.2003229,19.7249166 65.3834026,19.4088615 C64.5664824,19.0956033 63.8686963,18.6424977 63.2900445,18.0495448 C62.7113927,17.4565918 62.2575481,16.74337 61.9285108,15.9154734 C61.5966369,15.0903737 61.4349548,14.1701778 61.4349548,13.1632765 C61.4349548,12.1563752 61.5966369,11.2389763 61.9285108,10.4110797 C62.2575481,9.58318306 62.7113927,8.87275825 63.2900445,8.27700832" id="Fill-7"></path>
                            <path d="M86.8729433,8.94519921 L86.8729433,6.68246825 L80.6751283,6.68246825 L80.6751283,24.9157725 L87.1452501,24.9157725 L87.1452501,16.5556948 C87.1452501,14.9670283 87.5537102,13.8202796 88.3706304,13.1154487 C89.1875507,12.4078209 90.2540854,12.0554054 91.5730712,12.0554054 C91.7999935,12.0554054 92.0269158,12.0609993 92.2538381,12.0721871 C92.4807604,12.0833749 92.741721,12.1113444 93.03672,12.1560956 L93.03672,6.38039786 C91.2894184,6.38039786 89.8059139,6.72721942 88.5918797,7.42086253 C87.9082763,7.81243525 87.3523167,8.34105843 86.8729433,8.94519921" id="Fill-8"></path>
                            <path d="M104.155345,20.6691663 C103.576693,21.0159878 102.924291,21.1893986 102.19814,21.1893986 C101.449297,21.1893986 100.856462,21.0159878 100.428146,20.6691663 C99.9941574,20.3223447 99.7814177,19.8804269 99.7814177,19.340616 C99.7814177,18.7588508 99.9884843,18.3113391 100.411127,17.9980809 C100.830933,17.6876197 101.562758,17.5281936 102.6066,17.5281936 L105.397744,17.5281936 L105.397744,19.0749059 C105.14813,19.7909246 104.733997,20.3223447 104.155345,20.6691663 M102.436408,6.38235572 C100.984106,6.38235572 99.5232936,6.56975124 98.0596448,6.95293312 C96.5959961,7.33052111 95.3422504,7.85914429 94.2955714,8.52761487 L96.4428235,12.826524 C97.0782059,12.3790123 97.8554148,12.0098152 98.7772866,11.7189326 C99.6934853,11.42805 100.598338,11.2854056 101.483335,11.2854056 C102.844869,11.2854056 103.837654,11.5567096 104.46169,12.1049114 C105.023323,12.5999712 105.295629,13.3048021 105.35236,14.171856 L101.721603,14.171856 C99.8381483,14.171856 98.2865671,14.390018 97.0725329,14.8263418 C95.8584986,15.2598688 94.9621556,15.894776 94.3835038,16.7226726 C93.8048519,17.5533662 93.515526,18.5239071 93.515526,19.6454833 C93.515526,20.6747602 93.7793232,21.6145347 94.3125906,22.4676039 C94.8458579,23.3150791 95.6315764,23.9891436 96.6640728,24.4786095 C97.6965692,24.9708724 98.9389687,25.2198007 100.391271,25.2198007 C102.005256,25.2198007 103.304386,24.9009487 104.291498,24.2604476 C104.989284,23.8101389 105.468658,23.1500592 105.843079,22.3920863 L105.843079,24.9177304 L111.870703,24.9177304 L111.870703,14.8067632 C111.870703,11.9203128 111.045273,9.79463233 109.400086,8.42972169 C107.7549,7.06481104 105.434619,6.38235572 102.436408,6.38235572" id="Fill-9"></path>
                            <path d="M129.560713,18.151074 C129.208984,18.8111537 128.743793,19.3090105 128.165141,19.6446442 C127.586489,19.980278 126.931251,20.1480949 126.2051,20.1480949 C125.478949,20.1480949 124.826547,19.980278 124.247895,19.6446442 C123.669243,19.3090105 123.204053,18.8111537 122.852323,18.151074 C122.500594,17.4909942 122.324729,16.7106457 122.324729,15.8156224 C122.324729,14.8534722 122.500594,14.059139 122.852323,13.4326226 C123.204053,12.8061063 123.669243,12.3250312 124.247895,11.9893975 C124.826547,11.6537637 125.478949,11.4831499 126.2051,11.4831499 C126.931251,11.4831499 127.586489,11.6537637 128.165141,11.9893975 C128.743793,12.3250312 129.208984,12.8061063 129.560713,13.4326226 C129.912443,14.059139 130.088308,14.8534722 130.088308,15.8156224 C130.088308,16.7106457 129.912443,17.4909942 129.560713,18.151074 M135.418145,10.7951006 C134.612571,9.39662662 133.520507,8.31141078 132.150464,7.53945313 C130.774748,6.76749547 129.248695,6.38151664 127.566634,6.38151664 C126.00087,6.38151664 124.662028,6.7227443 123.550109,7.40519962 C123.12463,7.66811274 122.7729,8.02612208 122.426844,8.39252228 L122.426844,0.00167816882 L115.956722,0.00167816882 L115.956722,24.9168913 L122.154537,24.9168913 L122.154537,23.0820934 C122.531795,23.5212142 122.943092,23.9155839 123.430975,24.2120604 C124.531548,24.8833279 125.910101,25.2189617 127.566634,25.2189617 C129.248695,25.2189617 130.774748,24.8329828 132.150464,24.0582282 C133.520507,23.2890675 134.612571,22.2010547 135.418145,20.8025807 C136.223719,19.4041067 136.626506,17.7427196 136.626506,15.8156224 C136.626506,13.8689465 136.223719,12.1963716 135.418145,10.7951006" id="Fill-10"></path>
                        </g>
                    </g>
                </g>
            </g>
        </g>
    </g>
</svg>
